<mxfile host="app.diagrams.net" modified="2023-08-25T07:31:09.366Z" agent="Mozilla/5.0 (Windows NT 10.0; Win64; x64) AppleWebKit/537.36 (KHTML, like Gecko) Chrome/116.0.0.0 Safari/537.36" etag="CHLB3GuUMSJcuIcA1xcn" version="21.6.9" type="github">
  <diagram name="第 1 页" id="koWzIlelXBfN0tAOrRkD">
    <mxGraphModel dx="1006" dy="564" grid="1" gridSize="10" guides="1" tooltips="1" connect="1" arrows="1" fold="1" page="1" pageScale="1" pageWidth="1169" pageHeight="827" math="0" shadow="0">
      <root>
        <mxCell id="0" />
        <mxCell id="1" parent="0" />
        <mxCell id="kfU6DUed51PpgYBPSKgS-2" value="uniswap-interface" style="swimlane;whiteSpace=wrap;html=1;" parent="1" vertex="1">
          <mxGeometry x="440" y="200" width="200" height="80" as="geometry" />
        </mxCell>
        <mxCell id="CsVXj2xBOCSqVsRRStVS-1" value="&lt;font style=&quot;font-size: 10px;&quot;&gt;前端项目：包含&lt;br style=&quot;font-size: 10px;&quot;&gt;https://app.uniswap.org/所有页面&lt;/font&gt;" style="text;html=1;align=center;verticalAlign=middle;resizable=0;points=[];autosize=1;strokeColor=none;fillColor=none;fontSize=10;" vertex="1" parent="kfU6DUed51PpgYBPSKgS-2">
          <mxGeometry x="-5" y="33" width="200" height="40" as="geometry" />
        </mxCell>
        <mxCell id="kfU6DUed51PpgYBPSKgS-4" value="uniswap-sdk-core" style="swimlane;whiteSpace=wrap;html=1;" parent="1" vertex="1">
          <mxGeometry x="600" y="320" width="200" height="80" as="geometry">
            <mxRectangle x="600" y="320" width="140" height="30" as="alternateBounds" />
          </mxGeometry>
        </mxCell>
        <mxCell id="kfU6DUed51PpgYBPSKgS-5" value="uniswap-v2-sdk" style="swimlane;whiteSpace=wrap;html=1;" parent="1" vertex="1">
          <mxGeometry x="280" y="320" width="200" height="80" as="geometry" />
        </mxCell>
        <mxCell id="kfU6DUed51PpgYBPSKgS-7" value="uniswap-v2-periphery" style="swimlane;whiteSpace=wrap;html=1;" parent="1" vertex="1">
          <mxGeometry x="440" y="460" width="200" height="80" as="geometry" />
        </mxCell>
        <mxCell id="kfU6DUed51PpgYBPSKgS-8" value="uniswap-v2-core" style="swimlane;whiteSpace=wrap;html=1;" parent="1" vertex="1">
          <mxGeometry x="440" y="590" width="200" height="80" as="geometry" />
        </mxCell>
        <mxCell id="CsVXj2xBOCSqVsRRStVS-5" value="包含核心合约：pairs 、factory" style="text;html=1;align=center;verticalAlign=middle;resizable=0;points=[];autosize=1;strokeColor=none;fillColor=none;" vertex="1" parent="kfU6DUed51PpgYBPSKgS-8">
          <mxGeometry x="10" y="30" width="180" height="30" as="geometry" />
        </mxCell>
        <mxCell id="kfU6DUed51PpgYBPSKgS-9" value="uniswap-lib" style="swimlane;whiteSpace=wrap;html=1;" parent="1" vertex="1">
          <mxGeometry x="300" y="460" width="100" height="210" as="geometry" />
        </mxCell>
        <mxCell id="CsVXj2xBOCSqVsRRStVS-4" value="工具类" style="text;html=1;align=center;verticalAlign=middle;resizable=0;points=[];autosize=1;strokeColor=none;fillColor=none;" vertex="1" parent="kfU6DUed51PpgYBPSKgS-9">
          <mxGeometry x="20" y="58" width="60" height="30" as="geometry" />
        </mxCell>
        <mxCell id="kfU6DUed51PpgYBPSKgS-10" value="uniswap-info" style="swimlane;whiteSpace=wrap;html=1;" parent="1" vertex="1">
          <mxGeometry x="840" y="200" width="200" height="83" as="geometry" />
        </mxCell>
        <mxCell id="CsVXj2xBOCSqVsRRStVS-3" value="Uniswap Analytics：&lt;br&gt;统计分析项目&lt;br&gt;对应 info.uniswap.org" style="text;html=1;align=center;verticalAlign=middle;resizable=0;points=[];autosize=1;strokeColor=none;fillColor=none;" vertex="1" parent="kfU6DUed51PpgYBPSKgS-10">
          <mxGeometry x="20" y="23" width="140" height="60" as="geometry" />
        </mxCell>
        <mxCell id="kfU6DUed51PpgYBPSKgS-11" value="uniswap-v2-subgraph" style="swimlane;whiteSpace=wrap;html=1;" parent="1" vertex="1">
          <mxGeometry x="840" y="320" width="200" height="80" as="geometry" />
        </mxCell>
        <mxCell id="CsVXj2xBOCSqVsRRStVS-6" value="subgraph项目&lt;br&gt;为uniswap-info提供数据" style="text;html=1;align=center;verticalAlign=middle;resizable=0;points=[];autosize=1;strokeColor=none;fillColor=none;" vertex="1" parent="kfU6DUed51PpgYBPSKgS-11">
          <mxGeometry x="15" y="25" width="150" height="40" as="geometry" />
        </mxCell>
        <mxCell id="kfU6DUed51PpgYBPSKgS-13" value="" style="shape=link;html=1;rounded=0;" parent="1" edge="1">
          <mxGeometry width="100" relative="1" as="geometry">
            <mxPoint x="260" y="420" as="sourcePoint" />
            <mxPoint x="1090" y="420" as="targetPoint" />
          </mxGeometry>
        </mxCell>
        <mxCell id="CsVXj2xBOCSqVsRRStVS-7" value="" style="edgeStyle=orthogonalEdgeStyle;rounded=0;orthogonalLoop=1;jettySize=auto;html=1;" edge="1" parent="1" source="CsVXj2xBOCSqVsRRStVS-3">
          <mxGeometry relative="1" as="geometry">
            <mxPoint x="930" y="320" as="targetPoint" />
          </mxGeometry>
        </mxCell>
        <mxCell id="CsVXj2xBOCSqVsRRStVS-8" value="包含外围合约：Router、" style="text;html=1;align=center;verticalAlign=middle;resizable=0;points=[];autosize=1;strokeColor=none;fillColor=none;" vertex="1" parent="1">
          <mxGeometry x="480" y="488" width="160" height="30" as="geometry" />
        </mxCell>
        <mxCell id="CsVXj2xBOCSqVsRRStVS-9" value="链上" style="text;html=1;strokeColor=none;fillColor=none;align=center;verticalAlign=middle;whiteSpace=wrap;rounded=0;" vertex="1" parent="1">
          <mxGeometry x="180" y="500" width="60" height="30" as="geometry" />
        </mxCell>
        <mxCell id="CsVXj2xBOCSqVsRRStVS-10" value="链下" style="text;html=1;strokeColor=none;fillColor=none;align=center;verticalAlign=middle;whiteSpace=wrap;rounded=0;" vertex="1" parent="1">
          <mxGeometry x="180" y="320" width="60" height="30" as="geometry" />
        </mxCell>
      </root>
    </mxGraphModel>
  </diagram>
</mxfile>
